<svg width="104" height="32" viewBox="0 0 104 32" fill="none" xmlns="http://www.w3.org/2000/svg">
<path d="M0 31.597H5.15367V16.7636H15.386V12.0316H5.15367V11.966C5.15367 9.69836 5.90329 7.82428 7.32758 6.54991C8.60194 5.40672 10.401 4.82575 12.3782 4.82575H15.9389V0H12.5562C4.81633 0 0 4.75079 0 12.3877V31.597Z" fill="#2C2F32"/>
<path d="M58.6298 10.8508C62.5747 10.8508 65.0485 13.5776 65.0485 17.5975V31.5969H70.0429V17.813C70.0429 10.2792 65.0297 6.18433 58.6298 6.18433C52.2299 6.18433 47.2168 10.2792 47.2168 17.813V31.5969H52.2112V17.5975C52.2112 13.5776 54.6849 10.8508 58.6298 10.8508Z" fill="#2C2F32"/>
<path d="M30.9974 31.9996C35.467 31.9996 39.4775 29.6664 41.6608 26.1243L37.1912 24.1003C35.7856 26.0119 33.5555 27.2582 30.9974 27.2582C28.4393 27.2582 26.2092 26.0119 24.8036 24.1003L20.334 26.1243C22.5173 29.6757 26.5278 31.9996 30.9974 31.9996Z" fill="#2C2F32"/>
<path d="M86.262 32.0001C90.7317 32.0001 94.7422 29.6668 96.9254 26.1248L92.4558 24.1008C91.0503 26.0124 88.8201 27.2587 86.262 27.2587C83.7039 27.2587 81.4738 26.0124 80.0683 24.1008L75.5986 26.1248C77.7819 29.6762 81.7924 32.0001 86.262 32.0001Z" fill="#2C2F32"/>
<path d="M86.2632 10.8039C90.5361 10.8039 94.0218 14.1211 94.0218 18.5345C94.0218 19.4341 93.9094 20.418 93.6377 21.2238H98.6414C98.8382 20.3524 99.0256 18.7688 98.7819 17.0165C97.948 10.8789 92.6444 6.18433 86.2632 6.18433C79.882 6.18433 74.5785 10.8789 73.7445 17.0165C73.5009 18.7688 73.6883 20.3524 73.8851 21.2238H78.8888C78.6171 20.418 78.5046 19.4247 78.5046 18.5345C78.5046 14.1211 81.981 10.8039 86.2632 10.8039Z" fill="#2C2F32"/>
<path d="M43.5163 17.0258C42.6824 10.8882 37.3788 6.1936 30.9976 6.1936C24.6164 6.1936 19.3128 10.8882 18.4789 17.0258C18.2352 18.778 18.4227 20.3616 18.6194 21.2331H43.3758C43.5725 20.3616 43.76 18.778 43.5163 17.0258ZM30.9976 10.7195C35.1486 10.7195 38.2596 13.7555 38.6157 16.9883H23.3795C23.7356 13.7555 26.8466 10.7195 30.9976 10.7195Z" fill="#2C2F32"/>
<path d="M97.4698 4.08557H96.4766V3.53271H99.0721V4.08557H98.0789V6.84984H97.4698V4.08557ZM99.6812 3.53271H100.234L101.396 5.07883L102.558 3.53271H103.111V6.84984H102.502V4.63842L101.396 6.07209L100.29 4.63842V6.84984H99.6812V3.53271Z" fill="#2C2F32"/>
</svg>
